<svg width="250" height="60" viewBox="0 0 250 60" fill="none" xmlns="http://www.w3.org/2000/svg">
<path d="M106.388 36.248L104.876 36.86V17.708H109.664V41H104.876L86.048 22.604L87.56 21.992V41H82.772V17.708H87.56L106.388 36.248ZM123.321 41.396C121.545 41.396 119.925 41.012 118.461 40.244C117.021 39.452 115.869 38.36 115.005 36.968C114.165 35.552 113.745 33.92 113.745 32.072C113.745 30.176 114.177 28.532 115.041 27.14C115.905 25.748 117.069 24.668 118.533 23.9C120.021 23.108 121.701 22.712 123.573 22.712C125.637 22.712 127.293 23.132 128.541 23.972C129.813 24.788 130.737 25.904 131.313 27.32C131.889 28.736 132.177 30.32 132.177 32.072C132.177 33.128 132.009 34.208 131.673 35.312C131.337 36.392 130.821 37.4 130.125 38.336C129.429 39.248 128.517 39.992 127.389 40.568C126.261 41.12 124.905 41.396 123.321 41.396ZM124.833 37.796C126.249 37.796 127.473 37.556 128.505 37.076C129.537 36.596 130.329 35.924 130.881 35.06C131.433 34.196 131.709 33.2 131.709 32.072C131.709 30.848 131.421 29.816 130.845 28.976C130.293 28.112 129.501 27.464 128.469 27.032C127.461 26.576 126.249 26.348 124.833 26.348C122.841 26.348 121.293 26.876 120.189 27.932C119.085 28.964 118.533 30.344 118.533 32.072C118.533 33.224 118.797 34.232 119.325 35.096C119.853 35.936 120.585 36.596 121.521 37.076C122.481 37.556 123.585 37.796 124.833 37.796ZM131.709 23.108H136.389V41H132.033C132.033 41 131.997 40.772 131.925 40.316C131.877 39.836 131.829 39.236 131.781 38.516C131.733 37.796 131.709 37.088 131.709 36.392V23.108ZM150.489 37.94H148.797L155.349 23.108H160.461L151.857 41H147.429L139.005 23.108H144.153L150.489 37.94ZM190.987 32.612C190.771 34.484 190.111 36.08 189.007 37.4C187.903 38.72 186.403 39.728 184.507 40.424C182.611 41.12 180.355 41.468 177.739 41.468C175.555 41.468 173.551 41.216 171.727 40.712C169.927 40.208 168.367 39.452 167.047 38.444C165.751 37.436 164.743 36.188 164.023 34.7C163.303 33.188 162.943 31.424 162.943 29.408C162.943 27.392 163.303 25.628 164.023 24.116C164.743 22.604 165.751 21.344 167.047 20.336C168.367 19.304 169.927 18.536 171.727 18.032C173.551 17.504 175.555 17.24 177.739 17.24C180.355 17.24 182.611 17.6 184.507 18.32C186.427 19.04 187.939 20.072 189.043 21.416C190.147 22.736 190.795 24.344 190.987 26.24H186.235C185.923 25.232 185.395 24.368 184.651 23.648C183.931 22.904 182.995 22.34 181.843 21.956C180.691 21.572 179.323 21.38 177.739 21.38C175.771 21.38 174.043 21.692 172.555 22.316C171.067 22.916 169.915 23.816 169.099 25.016C168.283 26.192 167.875 27.656 167.875 29.408C167.875 31.136 168.283 32.588 169.099 33.764C169.915 34.94 171.067 35.84 172.555 36.464C174.043 37.064 175.771 37.364 177.739 37.364C179.323 37.364 180.679 37.172 181.807 36.788C182.959 36.404 183.895 35.852 184.615 35.132C185.359 34.412 185.899 33.572 186.235 32.612H190.987ZM203.759 41.396C201.983 41.396 200.363 41.012 198.899 40.244C197.459 39.452 196.307 38.36 195.443 36.968C194.603 35.552 194.183 33.92 194.183 32.072C194.183 30.176 194.615 28.532 195.479 27.14C196.343 25.748 197.507 24.668 198.971 23.9C200.459 23.108 202.139 22.712 204.011 22.712C206.075 22.712 207.731 23.132 208.979 23.972C210.251 24.788 211.175 25.904 211.751 27.32C212.327 28.736 212.615 30.32 212.615 32.072C212.615 33.128 212.447 34.208 212.111 35.312C211.775 36.392 211.259 37.4 210.563 38.336C209.867 39.248 208.955 39.992 207.827 40.568C206.699 41.12 205.343 41.396 203.759 41.396ZM205.271 37.796C206.687 37.796 207.911 37.556 208.943 37.076C209.975 36.596 210.767 35.924 211.319 35.06C211.871 34.196 212.147 33.2 212.147 32.072C212.147 30.848 211.859 29.816 211.283 28.976C210.731 28.112 209.939 27.464 208.907 27.032C207.899 26.576 206.687 26.348 205.271 26.348C203.279 26.348 201.731 26.876 200.627 27.932C199.523 28.964 198.971 30.344 198.971 32.072C198.971 33.224 199.235 34.232 199.763 35.096C200.291 35.936 201.023 36.596 201.959 37.076C202.919 37.556 204.023 37.796 205.271 37.796ZM212.147 23.108H216.827V41H212.471C212.471 41 212.435 40.772 212.363 40.316C212.315 39.836 212.267 39.236 212.219 38.516C212.171 37.796 212.147 37.088 212.147 36.392V23.108ZM221.062 23.108H225.742V41H221.062V23.108ZM232.618 26.96C231.274 26.96 230.11 27.224 229.126 27.752C228.142 28.256 227.35 28.88 226.75 29.624C226.15 30.368 225.73 31.088 225.49 31.784L225.454 29.804C225.478 29.516 225.574 29.096 225.742 28.544C225.91 27.968 226.162 27.356 226.498 26.708C226.834 26.036 227.278 25.4 227.83 24.8C228.382 24.176 229.054 23.672 229.846 23.288C230.638 22.904 231.562 22.712 232.618 22.712V26.96ZM234.357 23.108H248.253V26.744H234.357V23.108ZM238.965 18.212H243.645V41H238.965V18.212Z" fill="white"/>
<rect width="60" height="60" rx="10" fill="#4CAF50"/>
<path d="M45 32.875C44.8125 33.5625 44.1875 34 43.5 34H25.1875L25.625 36H42.375C43.3125 36 44.0625 36.9375 43.8125 37.875L43.5 39.375C44.6875 39.9375 45.5 41.125 45.5 42.5C45.5 44.4375 43.875 46 42 46C40.0625 46 38.5 44.4375 38.5 42.5C38.5 41.5625 38.875 40.6875 39.5 40H26.4375C27.0625 40.6875 27.5 41.5625 27.5 42.5C27.5 44.4375 25.875 46 24 46C22.0625 46 20.5 44.4375 20.5 42.5C20.5 41.25 21.1875 40.125 22.25 39.5L17.8125 18H13.5C12.625 18 12 17.375 12 16.5V15.5C12 14.6875 12.625 14 13.5 14H19.875C20.5625 14 21.1875 14.5625 21.375 15.25L21.9375 18H46.4375C47.4375 18 48.125 18.9375 47.9375 19.875L45 32.875Z" fill="white"/>
</svg>
